<svg width="170" height="78" viewBox="0 0 170 78" fill="none" xmlns="http://www.w3.org/2000/svg">
<path d="M36.6337 1.024H42.8977L51.7897 25H46.3897L44.4457 19.528H35.0137L33.1777 25H27.8497L36.6337 1.024ZM42.8977 15.064L39.6577 5.884L36.5257 15.064H42.8977ZM54.4072 1.024C55.1273 0.999999 56.4713 0.987998 58.4393 0.987998C60.4313 0.987998 61.7873 0.999999 62.5073 1.024C65.2433 1.12 67.2833 1.792 68.6273 3.04C69.9713 4.264 70.6433 5.92 70.6433 8.008C70.6433 9.784 70.1873 11.296 69.2753 12.544C68.3873 13.768 67.1393 14.572 65.5313 14.956C66.0353 15.364 66.5513 15.928 67.0793 16.648C67.6073 17.344 68.3393 18.436 69.2753 19.924C70.2593 21.484 71.2553 23.176 72.2633 25H66.2153L62.1473 17.44C61.7153 16.648 61.3193 16.156 60.9593 15.964C60.6233 15.748 60.1073 15.64 59.4113 15.64V25H54.4072V1.024ZM61.6433 11.644C62.8673 11.644 63.8273 11.332 64.5233 10.708C65.2433 10.084 65.6033 9.244 65.6033 8.188C65.6033 7.228 65.2913 6.496 64.6673 5.992C64.0433 5.488 63.1313 5.236 61.9313 5.236H59.4113V11.644H61.6433ZM79.8078 5.56H73.2558V1.024H91.5438V5.56H85.0638V25H79.8078V5.56ZM95.4447 1.024H100.665V25H95.4447V1.024ZM112.321 25.468C110.929 25.468 109.597 25.312 108.325 25C107.077 24.688 105.997 24.268 105.085 23.74L105.517 18.916C106.597 19.588 107.725 20.116 108.901 20.5C110.101 20.86 111.205 21.04 112.213 21.04C113.365 21.04 114.301 20.8 115.021 20.32C115.741 19.84 116.101 19.204 116.101 18.412C116.101 17.764 115.861 17.272 115.381 16.936C114.901 16.576 114.145 16.192 113.113 15.784L112.249 15.424C112.129 15.376 111.997 15.328 111.853 15.28C111.709 15.208 111.541 15.136 111.349 15.064C110.005 14.512 108.925 13.996 108.109 13.516C107.293 13.012 106.585 12.316 105.985 11.428C105.409 10.54 105.121 9.388 105.121 7.972C105.121 5.668 105.901 3.856 107.461 2.536C109.021 1.216 111.193 0.555999 113.977 0.555999C116.089 0.555999 118.249 0.987999 120.457 1.852L119.665 6.604C118.777 6.1 117.817 5.704 116.785 5.416C115.777 5.128 114.817 4.984 113.905 4.984C112.777 4.984 111.901 5.212 111.277 5.668C110.653 6.1 110.341 6.688 110.341 7.432C110.341 8.08 110.557 8.584 110.989 8.944C111.421 9.304 112.117 9.688 113.077 10.096L114.553 10.672C115.945 11.2 117.097 11.716 118.009 12.22C118.921 12.724 119.701 13.456 120.349 14.416C120.997 15.352 121.321 16.576 121.321 18.088C121.321 20.416 120.529 22.228 118.945 23.524C117.361 24.82 115.153 25.468 112.321 25.468ZM130.573 5.56H124.021V1.024H142.309V5.56H135.829V25H130.573V5.56ZM8.22319 77.468C6.83119 77.468 5.49919 77.312 4.22719 77C2.97919 76.688 1.89919 76.268 0.987188 75.74L1.41919 70.916C2.49919 71.588 3.62719 72.116 4.80319 72.5C6.00319 72.86 7.10719 73.04 8.11519 73.04C9.26719 73.04 10.2032 72.8 10.9232 72.32C11.6432 71.84 12.0032 71.204 12.0032 70.412C12.0032 69.764 11.7632 69.272 11.2832 68.936C10.8032 68.576 10.0472 68.192 9.01519 67.784L8.15119 67.424C8.03119 67.376 7.89919 67.328 7.75519 67.28C7.61119 67.208 7.44319 67.136 7.25119 67.064C5.90719 66.512 4.82719 65.996 4.01119 65.516C3.19519 65.012 2.48719 64.316 1.88719 63.428C1.31119 62.54 1.02319 61.388 1.02319 59.972C1.02319 57.668 1.80319 55.856 3.36319 54.536C4.92319 53.216 7.09519 52.556 9.87919 52.556C11.9912 52.556 14.1512 52.988 16.3592 53.852L15.5672 58.604C14.6792 58.1 13.7192 57.704 12.6872 57.416C11.6792 57.128 10.7192 56.984 9.80719 56.984C8.67919 56.984 7.80319 57.212 7.17919 57.668C6.55519 58.1 6.24319 58.688 6.24319 59.432C6.24319 60.08 6.45919 60.584 6.89119 60.944C7.32319 61.304 8.01919 61.688 8.97919 62.096L10.4552 62.672C11.8472 63.2 12.9992 63.716 13.9112 64.22C14.8232 64.724 15.6032 65.456 16.2512 66.416C16.8992 67.352 17.2232 68.576 17.2232 70.088C17.2232 72.416 16.4312 74.228 14.8472 75.524C13.2632 76.82 11.0552 77.468 8.22319 77.468ZM32.5598 77.468C28.7198 77.468 25.7198 76.436 23.5598 74.372C21.3998 72.308 20.3198 69.392 20.3198 65.624C20.3198 63.056 20.8238 60.788 21.8318 58.82C22.8638 56.852 24.3158 55.34 26.1878 54.284C28.0598 53.204 30.2198 52.664 32.6678 52.664C34.6598 52.664 36.5798 53.024 38.4278 53.744L37.4558 58.388C35.8238 57.644 34.2398 57.272 32.7038 57.272C30.5198 57.272 28.7918 57.992 27.5198 59.432C26.2478 60.848 25.6118 62.744 25.6118 65.12C25.6118 67.544 26.2838 69.428 27.6278 70.772C28.9718 72.116 30.8318 72.788 33.2078 72.788C34.7678 72.788 36.2798 72.536 37.7438 72.032L38.5358 76.46C36.7838 77.132 34.7918 77.468 32.5598 77.468ZM42.7388 53.024H47.9948V62.312H58.1828V53.024H63.4748V77H58.1828V66.776H47.9948V77H42.7388V53.024ZM68.5083 53.024H83.0883V57.56H73.6563V62.348H81.4683V66.74H73.6563V72.464H83.0883V77H68.5083V53.024ZM91.3781 77.036C89.6741 77.036 88.4021 77.024 87.5621 77V53.024C88.5941 53 90.1181 52.988 92.1341 52.988C94.1741 52.988 95.6981 53 96.7061 53.024C99.0581 53.048 101.098 53.528 102.826 54.464C104.578 55.376 105.922 56.684 106.858 58.388C107.818 60.092 108.298 62.084 108.298 64.364C108.298 66.86 107.746 69.056 106.642 70.952C105.562 72.848 104.026 74.324 102.034 75.38C100.066 76.436 97.7741 76.976 95.1581 77C94.3181 77.024 93.0581 77.036 91.3781 77.036ZM95.1221 72.464C97.5461 72.464 99.4541 71.756 100.846 70.34C102.238 68.924 102.934 66.98 102.934 64.508C102.934 62.276 102.334 60.56 101.134 59.36C99.9581 58.16 98.2541 57.56 96.0221 57.56H92.7821V72.464H95.1221ZM122.532 77.468C120.54 77.468 118.788 77.048 117.276 76.208C115.764 75.368 114.588 74.192 113.748 72.68C112.932 71.144 112.524 69.38 112.524 67.388V53.024H117.78V66.992C117.78 68.768 118.2 70.184 119.04 71.24C119.904 72.272 121.068 72.788 122.532 72.788C123.996 72.788 125.16 72.272 126.024 71.24C126.888 70.184 127.32 68.768 127.32 66.992V53.024H132.54V67.388C132.54 69.38 132.12 71.144 131.28 72.68C130.464 74.192 129.3 75.368 127.788 76.208C126.276 77.048 124.524 77.468 122.532 77.468ZM137.59 53.024H142.81V72.464H151.45V77H137.59V53.024ZM155.063 53.024H169.643V57.56H160.211V62.348H168.023V66.74H160.211V72.464H169.643V77H155.063V53.024Z" fill="white"/>
</svg>
