<svg width="43" height="26" viewBox="0 0 43 26" fill="none" xmlns="http://www.w3.org/2000/svg">
<path d="M9.036 1.024H15.3L24.192 25H18.792L16.848 19.528H7.416L5.58 25H0.252L9.036 1.024ZM15.3 15.064L12.06 5.884L8.928 15.064H15.3ZM33.2896 25.468C31.8976 25.468 30.5656 25.312 29.2936 25C28.0456 24.688 26.9656 24.268 26.0536 23.74L26.4856 18.916C27.5656 19.588 28.6936 20.116 29.8696 20.5C31.0696 20.86 32.1736 21.04 33.1816 21.04C34.3336 21.04 35.2696 20.8 35.9896 20.32C36.7096 19.84 37.0696 19.204 37.0696 18.412C37.0696 17.764 36.8296 17.272 36.3496 16.936C35.8696 16.576 35.1136 16.192 34.0816 15.784L33.2176 15.424C33.0976 15.376 32.9656 15.328 32.8216 15.28C32.6776 15.208 32.5096 15.136 32.3176 15.064C30.9736 14.512 29.8936 13.996 29.0776 13.516C28.2616 13.012 27.5536 12.316 26.9536 11.428C26.3776 10.54 26.0896 9.388 26.0896 7.972C26.0896 5.668 26.8696 3.856 28.4296 2.536C29.9896 1.216 32.1616 0.555999 34.9456 0.555999C37.0576 0.555999 39.2176 0.987999 41.4256 1.852L40.6336 6.604C39.7456 6.1 38.7856 5.704 37.7536 5.416C36.7456 5.128 35.7856 4.984 34.8736 4.984C33.7456 4.984 32.8696 5.212 32.2456 5.668C31.6216 6.1 31.3096 6.688 31.3096 7.432C31.3096 8.08 31.5256 8.584 31.9576 8.944C32.3896 9.304 33.0856 9.688 34.0456 10.096L35.5216 10.672C36.9136 11.2 38.0656 11.716 38.9776 12.22C39.8896 12.724 40.6696 13.456 41.3176 14.416C41.9656 15.352 42.2896 16.576 42.2896 18.088C42.2896 20.416 41.4976 22.228 39.9136 23.524C38.3296 24.82 36.1216 25.468 33.2896 25.468Z" fill="white"/>
</svg>
